<svg width="100" height="100" viewBox="0 0 100 100" fill="none" xmlns="http://www.w3.org/2000/svg">
<path opacity="0.25" d="M94.6821 58.2821L94.653 58.2966C91.2253 60.9253 89.773 65.3985 90.9931 69.538L91.0075 69.5671C92.9536 76.1464 88.1319 82.7835 81.2765 82.9579H81.2476C76.9194 83.0741 73.1142 85.8335 71.6763 89.9147V89.9292C69.3813 96.4067 61.5679 98.9483 55.9181 95.0413C52.4099 92.6458 47.7722 92.5208 44.0812 95.0413H44.0667C38.4171 98.9337 30.6032 96.4065 28.323 89.9146C26.8722 85.8231 23.0726 83.0737 18.7519 82.9577H18.7228C11.8677 82.7833 7.04561 76.1462 8.99189 69.5669L9.00635 69.5378C10.2261 65.3983 8.77373 60.9251 5.34639 58.2964L5.31729 58.2819C-0.129199 54.0989 -0.129199 45.9077 5.31729 41.7249L5.34639 41.7104C8.77373 39.0817 10.2261 34.6083 8.99189 30.469V30.4399C7.03096 23.8608 11.8675 17.2233 18.7228 17.0491H18.7519C23.0653 16.9329 26.8851 14.1733 28.323 10.0923V10.0778C30.603 3.60029 38.4171 1.05869 44.0667 4.96572H44.0812C47.6394 7.42021 52.345 7.42021 55.9181 4.96572C61.6247 1.0249 69.3948 3.63916 71.6763 10.0778V10.0923C73.1142 14.1589 76.9192 16.9331 81.2476 17.0491H81.2765C88.1317 17.2233 92.9536 23.8608 91.0075 30.4399L90.9931 30.469C89.773 34.6083 91.2253 39.0817 94.653 41.7104L94.6821 41.7249C100.129 45.9077 100.129 54.0991 94.6821 58.2821Z" fill="#44D260"/>
<path d="M49.9994 77.0542C64.941 77.0542 77.0535 64.9417 77.0535 50.0001C77.0535 35.0586 64.941 22.946 49.9994 22.946C35.0578 22.946 22.9453 35.0586 22.9453 50.0001C22.9453 64.9417 35.0578 77.0542 49.9994 77.0542Z" fill="#44D260"/>
<path opacity="0.1" d="M70.7721 32.6823C66.0926 28.8327 60.1057 26.5188 53.5791 26.5188C38.6377 26.5188 26.5186 38.6379 26.5186 53.5793C26.5186 60.1059 28.8324 66.0928 32.6818 70.7723C26.7363 65.8127 22.9492 58.3524 22.9492 49.9997C22.9492 35.0581 35.058 22.9495 49.9994 22.9495C58.3521 22.9495 65.8125 26.7366 70.7721 32.6823Z" fill="#44D260"/>
<path d="M43.5638 60.591L37.5812 54.2262C36.0144 52.559 36.0953 49.9377 37.7619 48.3709C39.4285 46.8022 42.0509 46.8864 43.6164 48.5524L46.4722 51.5895L58.6115 37.7149C60.1162 35.993 62.7333 35.8184 64.4566 37.3252C66.1785 38.8321 66.3523 41.4485 64.8462 43.1703L49.6988 60.4819C48.0851 62.3242 45.2373 62.3725 43.5638 60.591Z" fill="white"/>
</svg>
